[IMG]http://img88.imageshack.us/img88/4803/breakingo.jpg[/IMG]
[code]

Breaking Wind 2011 DVDRip XviD AC3-26k
 
http://www.imdb.com/title/tt1651323/

Plot:
A comedic spoof based on the worldwide phenomenon, The Twilight Saga.

Sources - Breaking Wind  Retail  Pal DVDR  Legend-Rg.....Thanks :P

Format                                   : AVI
Format/Info                              : Audio Video Interleave
File size                                : 1.24 GiB
Duration                                 : 1h 18mn
Overall bit rate                         : 2 267 Kbps

Video
ID                                       : 0
Format                                   : MPEG-4 Visual
Format profile                           : Advanced Simple@L5
Format settings, BVOP                    : 2
Format settings, QPel                    : No
Format settings, GMC                     : No warppoints
Format settings, Matrix                  : Default (H.263)
Codec ID                                 : XVID
Codec ID/Hint                            : XviD
Duration                                 : 1h 18mn
Bit rate                                 : 1 812 Kbps
Width                                    : 720 pixels
Height                                   : 400 pixels
Display aspect ratio                     : 16:9
Frame rate                               : 25.000 fps
Color space                              : YUV
Chroma subsampling                       : 4:2:0
Bit depth                                : 8 bits
Scan type                                : Progressive
Compression mode                         : Lossy
Bits/(Pixel*Frame)                       : 0.252
Stream size                              : 1 017 MiB (80%)
Writing library                          : XviD 1.2.1 (UTC 2008-12-04)

Audio
ID                                       : 1
Format                                   : AC-3
Format/Info                              : Audio Coding 3
Mode extension                           : CM (complete main)
Codec ID                                 : 2000
Duration                                 : 1h 18mn
Bit rate mode                            : Constant
Bit rate                                 : 448 Kbps
Channel(s)                               : 6 channels
Channel positions                        : Front: L C R, Side: L R, LFE
Sampling rate                            : 48.0 KHz
Bit depth                                : 16 bits
Compression mode                         : Lossy
Stream size                              : 252 MiB (20%)
Alignment                                : Aligned on interleaves
Interleave, duration                     : 64 ms (1.60 video frames)
Interleave, preload duration             : 192 ms


Notes -

Did my thing.. turned out real nice...enjoy

[/code]

Screens:
[IMG]http://i.imgur.com/8LOew.png[/IMG]
[IMG]http://i.imgur.com/gbG4j.png[/IMG]
[IMG]http://img39.imageshack.us/img39/7928/21329106.png[/IMG]
[IMG]http://img138.imageshack.us/img138/1499/58679230.png[/IMG]
[IMG]http://img23.imageshack.us/img23/2183/breakingwind2011dvdripx.jpg[/IMG]

Greetz:
Xtreme Encode|FYA|ILLUMANTI|CM8|RX|VISIΓÇïON|HDSCENE|xTriLL|DTRG|CRYS|REMIXΓÇïHD|BIDA|RX|REFILL|INSPiRAL|SIC|
|HOΓÇïPE|Anonymous|GooN|miRaGe
To all the people who have helped me  you know who you are

Anything to offer email us @: 26k@hushmail.me


[img]http://img851.imageshack.us/img851/5503/26ks.jpg[/img]
Thank you smallz for banner!